<svg preserveAspectRatio="xMidYMid meet" data-bbox="-0.01 0 270.016 104.024" xmlns="http://www.w3.org/2000/svg" viewBox="-0.01 0 270.016 104.024" height="104" width="270" data-type="color" role="presentation" aria-hidden="true" aria-label=""><defs><style>#comp-lix9tt60 svg [data-color="1"] {fill: #FFFFFF;}</style></defs>
    <g>
        <g clip-path="url(#9405a155-e210-4317-b7e2-1d84da3d00a1_comp-lix9tt60)">
            <path fill="#4BD6D8" d="M28.825 82.512a30.237 30.237 0 0 1-15.008-3.642A25.525 25.525 0 0 1 3.632 68.585 32.145 32.145 0 0 1 0 52.933v-1.427a32.593 32.593 0 0 1 3.572-15.662 25.264 25.264 0 0 1 10.035-10.276 30.006 30.006 0 0 1 15.008-3.64 27.808 27.808 0 0 1 14.637 3.76 25.73 25.73 0 0 1 9.685 10.395 33.03 33.03 0 0 1 3.442 15.423v4.988H14.758a12.936 12.936 0 0 0 1.17 5.257 12.972 12.972 0 0 0 3.212 4.33 14.653 14.653 0 0 0 10.145 3.701c4.069 0 7.07-.884 9.005-2.653a18.806 18.806 0 0 0 4.382-5.896l11.856 6.235a36.974 36.974 0 0 1-4.662 6.534 25.44 25.44 0 0 1-8.134 5.986c-3.382 1.682-7.684 2.524-12.907 2.524ZM14.878 45.65h26.744a11.486 11.486 0 0 0-4.002-7.98 13.613 13.613 0 0 0-9.165-2.993c-3.922 0-7.034.997-9.335 2.992a12.858 12.858 0 0 0-4.242 7.981Z" data-color="1"></path>
            <path fill="#4BD6D8" d="M92.348 82.512a24.93 24.93 0 0 1-13.02-3.57 24.83 24.83 0 0 1-9.232-9.828c-2.38-4.403-3.572-9.723-3.572-15.962v-1.835c0-6.245 1.191-11.566 3.572-15.962a24.69 24.69 0 0 1 9.218-9.849 24.789 24.789 0 0 1 13.034-3.549 27.04 27.04 0 0 1 8.704 1.217 17.837 17.837 0 0 1 5.703 3.063 14.308 14.308 0 0 1 3.342 3.93h2.081V0h14.528v80.895h-14.298v-6.933h-2.081a18.893 18.893 0 0 1-6.003 5.896c-2.755 1.763-6.747 2.647-11.976 2.654Zm4.402-12.71a15.495 15.495 0 0 0 11.156-4.33c3.002-2.892 4.502-7.112 4.502-12.659v-1.157c0-5.547-1.48-9.763-4.442-12.65a16.647 16.647 0 0 0-11.21-4.338c-4.15 0-8.149 1.547-11.212 4.338-3.001 2.893-4.499 7.11-4.492 12.65v1.157c0 5.547 1.497 9.767 4.492 12.66a15.493 15.493 0 0 0 5.165 3.292 15.53 15.53 0 0 0 6.041 1.037Z" data-color="1"></path>
            <path fill="#4BD6D8" d="M140.073 52.504v-1.886a31.23 31.23 0 0 1 3.571-15.423 25.117 25.117 0 0 1 9.515-9.826 25.575 25.575 0 0 1 13.007-3.412c5.223 0 9.182.925 11.876 2.774a20.13 20.13 0 0 1 5.883 5.786h2.071v-6.944h14.298v67.488a12.857 12.857 0 0 1-3.492 9.427 12.34 12.34 0 0 1-9.225 3.522h-38.28V91.3h33.198c2.154 0 3.231-1.157 3.231-3.471V72.925h-2.071a18.754 18.754 0 0 1-3.231 3.75 16.44 16.44 0 0 1-5.533 3.183 28.034 28.034 0 0 1-21.732-2.135 25.18 25.18 0 0 1-9.515-9.826 31.263 31.263 0 0 1-3.571-15.393Zm30.205 15.961a15.63 15.63 0 0 0 6.022-1.025 15.59 15.59 0 0 0 5.164-3.254c2.995-2.84 4.492-6.83 4.492-11.972v-1.246c0-5.235-1.477-9.262-4.432-12.082a17.037 17.037 0 0 0-11.216-4.21 17.04 17.04 0 0 0-11.216 4.21c-2.994 2.814-4.492 6.84-4.492 12.081v1.158c0 5.154 1.498 9.144 4.492 11.97a15.605 15.605 0 0 0 11.186 4.37Z" data-color="1"></path>
            <path fill="#4BD6D8" d="M242.446 82.512a30.267 30.267 0 0 1-15.008-3.642 25.522 25.522 0 0 1-10.145-10.285 32.143 32.143 0 0 1-3.632-15.652v-1.427a32.481 32.481 0 0 1 3.582-15.662 25.288 25.288 0 0 1 10.005-10.285 30.084 30.084 0 0 1 15.008-3.642 27.818 27.818 0 0 1 14.577 3.801 25.776 25.776 0 0 1 9.675 10.395A32.898 32.898 0 0 1 270 51.506v4.988h-41.622a12.935 12.935 0 0 0 1.171 5.257 12.97 12.97 0 0 0 3.212 4.33 14.683 14.683 0 0 0 10.145 3.701c4.069 0 7.07-.884 9.005-2.653a18.801 18.801 0 0 0 4.382-5.896l11.866 6.235a37.087 37.087 0 0 1-4.672 6.534 25.392 25.392 0 0 1-8.125 5.986c-3.381 1.682-7.687 2.524-12.916 2.524ZM228.498 45.65h26.744a11.471 11.471 0 0 0-4.002-7.98 13.633 13.633 0 0 0-9.164-2.993c-3.923 0-7.037.997-9.345 2.992a12.96 12.96 0 0 0-4.233 7.981Z" data-color="1"></path>
        </g>
        <defs fill="none">
            <clipPath id="9405a155-e210-4317-b7e2-1d84da3d00a1_comp-lix9tt60">
                <path fill="#ffffff" d="M270 0v104H0V0h270z"></path>
            </clipPath>
        </defs>
    </g>
</svg>